<svg xmlns="http://www.w3.org/2000/svg" xmlns:xlink="http://www.w3.org/1999/xlink" version="1.1" x="0px" y="0px" viewBox="0 0 100 100" style="enable-background:new 0 0 100 100;" xml:space="preserve"><path d="M55.7,92.5H44.3c-1.4,0-2.5-1.1-2.5-2.5l0-6.8c-1.5-0.4-3.4-0.9-4.7-1.5c-1.4-0.6-3.3-1.6-4.7-2.5l-4.8,4.8  c-1,1-2.6,1-3.5,0L15.9,76c-1-1-1-2.6,0-3.5l4.8-4.8c-0.7-1.2-1.6-2.8-2.1-4c-0.6-1.5-1.3-3.8-1.7-5.4l-6.9,0  c-1.4,0-2.5-1.1-2.5-2.5V44.3c0-1.4,1.1-2.5,2.5-2.5l6.8,0c0.3-1.4,0.8-2.7,1.3-4c0.7-1.9,1.6-3.7,2.7-5.5l-4.8-4.8  c-1-1-1-2.6,0-3.5l8.1-8.1c1-1,2.6-1,3.5,0l4.8,4.8c1.4-0.8,2.8-1.6,4.3-2.2c1.7-0.7,3.4-1.3,5.2-1.7l0-6.8c0-1.4,1.1-2.5,2.5-2.5  h11.4c1.4,0,2.5,1.1,2.5,2.5v6.8c1.8,0.4,3.6,1,5.3,1.8c1.4,0.6,2.8,1.3,4.1,2.1l4.8-4.8c0.5-0.5,1.1-0.7,1.8-0.7l0,0  c0.7,0,1.3,0.3,1.8,0.7l8.1,8.1c1,1,1,2.6,0,3.5l-4.8,4.8c0.9,1.4,1.6,2.9,2.3,4.5c0.7,1.6,1.2,3.3,1.7,5H90c1.4,0,2.5,1.1,2.5,2.5  v11.4c0,1.4-1.1,2.5-2.5,2.5h-6.8c-0.4,1.7-1,3.3-1.6,4.9c-0.7,1.6-1.4,3.1-2.3,4.6l4.8,4.8c1,1,1,2.6,0,3.5L76,84.1  c-0.9,0.9-2.6,0.9-3.5,0l-4.8-4.8c-1.3,0.8-2.7,1.5-4.2,2.1c-1.4,0.6-3.7,1.3-5.3,1.7V90C58.2,91.4,57.1,92.5,55.7,92.5z M46.8,87.5  h6.4v-6.3c0-1.2,0.8-2.2,1.9-2.4c1.2-0.3,4.8-1.2,6.4-1.9c1.8-0.8,3.5-1.7,5.1-2.8c1-0.7,2.3-0.6,3.2,0.3l4.5,4.5l4.5-4.5l-4.5-4.5  c-0.9-0.9-1-2.2-0.3-3.2c1.2-1.7,2.2-3.5,2.9-5.4c0.8-1.9,1.4-3.9,1.7-5.9c0,0,0,0,0,0c0.2-1.3,1.4-2.2,2.7-2h6v-6.4h-6.3  c-1.2,0-2.2-0.9-2.5-2.1c-0.4-2.1-1-4.1-1.8-6c-0.8-1.9-1.8-3.7-2.9-5.3c-0.6-0.9-0.6-2.2,0.2-3.1c0-0.1,0.1-0.1,0.1-0.1  c0.2-0.2,2.7-2.7,4.4-4.4l-4.5-4.5l-4.5,4.5c-0.9,0.9-2.2,1-3.2,0.3c-1.6-1.1-3.3-2-5-2.8c-2-0.9-4.1-1.5-6.3-1.9  c-1.2-0.2-2.1-1.3-2.1-2.5v-6.3h-6.4l0,6.3c0,1.2-0.9,2.2-2.1,2.5c-2.1,0.4-4.2,1-6.2,1.9c-1.8,0.8-3.5,1.7-5.1,2.8  c-1,0.7-2.3,0.6-3.2-0.3l-4.5-4.5l-4.5,4.5l4.5,4.5c0.9,0.9,1,2.2,0.3,3.2c-1.3,1.9-2.4,4-3.2,6.2c-0.6,1.7-1.1,3.4-1.4,5.2  c-0.2,1.2-1.3,2.1-2.5,2.1l-6.3,0v6.4l6.3,0c1.2,0,2.2,0.8,2.4,1.9c0.3,1.3,1.3,4.9,2,6.5c0.6,1.5,2.3,4.2,2.8,5.1  c0.6,1,0.5,2.3-0.4,3.1l-4.5,4.5l4.5,4.5l4.5-4.5c0.8-0.8,2.1-1,3.1-0.4c1,0.6,4.1,2.4,5.7,3.1c1.5,0.6,4.8,1.4,5.9,1.7  c1.1,0.3,1.9,1.3,1.9,2.4L46.8,87.5z M50,30c-11,0-20,9-20,20c0,11,9,20,20,20s20-9,20-20C70,39,61,30,50,30z M62.5,53.2  c-0.3,0.8-0.9,1.4-1.7,1.7c-1,0.4-2.1,0.3-3-0.3l-4.5-2.9c-1.5-1-1.9-2.9-0.9-4.4c0.6-1,1.7-1.5,2.8-1.5c-1.3-1.8-3.5-3.1-5.9-3.1  c-4,0-7.2,3.2-7.2,7.2s3.2,7.2,7.2,7.2c1,0,1.9-0.2,2.8-0.6c1.6-0.7,3.5,0.1,4.2,1.7c0.7,1.6-0.1,3.5-1.7,4.2  c-1.7,0.7-3.5,1.1-5.3,1.1c-7.5,0-13.6-6.1-13.6-13.6s6.1-13.6,13.6-13.6c5.4,0,10.1,3.2,12.3,7.7c0.9-0.3,1.8-0.2,2.7,0.4  c1.5,1,1.9,2.9,1,4.4L62.5,53.2z"></path></svg>