<?xml version="1.0" encoding="UTF-8" standalone="no"?>
<!-- Generator: Adobe Illustrator 19.2.0, SVG Export Plug-In . SVG Version: 6.00 Build 0)  -->

<svg
   xmlns:dc="http://purl.org/dc/elements/1.1/"
   xmlns:cc="http://creativecommons.org/ns#"
   xmlns:rdf="http://www.w3.org/1999/02/22-rdf-syntax-ns#"
   xmlns:svg="http://www.w3.org/2000/svg"
   xmlns="http://www.w3.org/2000/svg"
   xmlns:sodipodi="http://sodipodi.sourceforge.net/DTD/sodipodi-0.dtd"
   xmlns:inkscape="http://www.inkscape.org/namespaces/inkscape"
   version="1.1"
   id="Layer_1"
   x="0px"
   y="0px"
   viewBox="0 0 50 50"
   style="enable-background:new 0 0 50 50;"
   xml:space="preserve"
   inkscape:version="0.91 r13725"
   sodipodi:docname="plants.svg"><metadata
     id="metadata18"><rdf:RDF><cc:Work
         rdf:about=""><dc:format>image/svg+xml</dc:format><dc:type
           rdf:resource="http://purl.org/dc/dcmitype/StillImage" /></cc:Work></rdf:RDF></metadata><defs
     id="defs16" /><sodipodi:namedview
     pagecolor="#ffffff"
     bordercolor="#666666"
     borderopacity="1"
     objecttolerance="10"
     gridtolerance="10"
     guidetolerance="10"
     inkscape:pageopacity="0"
     inkscape:pageshadow="2"
     inkscape:window-width="2815"
     inkscape:window-height="1776"
     id="namedview14"
     showgrid="false"
     inkscape:zoom="18.88"
     inkscape:cx="15.632983"
     inkscape:cy="19.606354"
     inkscape:window-x="65"
     inkscape:window-y="24"
     inkscape:window-maximized="1"
     inkscape:current-layer="Layer_1" /><style
     type="text/css"
     id="style3">
	.st0{fill:#FFFFFF;}
</style><g
     id="Layer_2" /><g
     id="g6"><path
       class="st0"
       d="M20.7,29.7c-2.2,2.2-4.4,4.4-6.7,6.7c-0.5-0.5-1.1-1.1-1.6-1.6c2.2-2.2,4.4-4.4,6.7-6.7l-1.8-1.8   c-2.6,2.5-5.1,5.1-7.7,7.6c-0.5,0.5-0.9,1.1-1,1.8C8.3,37.8,8,39.8,7.7,42c0.2,0,0.4,0,0.5,0c2-0.4,4-0.8,5.9-1.2   c0.4-0.1,0.8-0.3,1.1-0.6c2.7-2.6,5.3-5.3,8-8L20.7,29.7z"
       id="path8" /><path
       class="st0"
       d="M31.1,11c0.8-0.8,1.8-1.8,2.7-2.7C34.2,8,34.6,8,34.9,8.4c1.6,1.6,3.1,3.1,4.7,4.7c0.4,0.4,0.4,0.8,0,1.2   c-0.9,0.9-1.8,1.8-2.7,2.7C35,15,33.1,13,31.1,11z"
       id="path10" /><path
       class="st0"
       d="M33,25.9c-0.4,0.1-0.6,0-0.9-0.2c-0.6-0.6-1.3-1.3-1.9-1.9c1.5-1.5,3.1-3.1,4.6-4.6c0.1-0.1,0.3-0.3,0.3-0.3   c-2-2-3.9-4-5.9-6.1c-0.1,0.2-0.2,0.3-0.4,0.5c-1.5,1.5-3,3-4.6,4.6c-2.8-2.8-5.6-5.6-8.4-8.4c-0.2-0.2-0.4-0.4-0.6-0.6   c-1.5-1.2-3.5-1-4.8,0.4c-1.2,1.4-1.1,3.5,0.2,4.8c4.2,4.2,8.3,8.3,12.5,12.5c1.4,1.4,2.7,2.7,4.1,4.1c0.2,0.2,0.2,0.4,0.2,0.7   c-0.2,0.6-0.3,1.2-0.3,1.9c-0.3,4,2.3,7.5,6.1,8.5c1.6,0.4,3.2,0.3,4.8-0.3c-0.1-0.2-0.3-0.2-0.4-0.4c-1.2-1.2-2.3-2.3-3.5-3.5   c-0.8-0.9-0.9-2.1-0.1-3c0.6-0.7,1.3-1.3,2-2c0.9-0.8,2-0.8,2.9,0c0.2,0.2,0.3,0.3,0.5,0.5c1.2,1.2,2.3,2.3,3.5,3.5   c0.1,0,0.1,0,0.2,0c0.1-0.7,0.3-1.3,0.3-2C43.9,28.7,38.5,24.3,33,25.9z M12.9,12.6c-0.6,0-1.2-0.5-1.2-1.2s0.5-1.2,1.2-1.2   c0.6,0,1.2,0.6,1.2,1.2C14.1,12,13.6,12.6,12.9,12.6z M29.3,16.3c0.5,0.5,1,1.1,1.6,1.6c-1.1,1.1-2.2,2.2-3.3,3.3   c-0.5-0.5-1.1-1.1-1.6-1.6C27.1,18.5,28.2,17.4,29.3,16.3z"
       id="path12" /></g><path
     style="fill:none;fill-rule:evenodd;stroke:#000000;stroke-width:1px;stroke-linecap:butt;stroke-linejoin:miter;stroke-opacity:1"
     d="m 4.184322,16.207627 c 0.2471752,0 0.4943503,0 0.7415255,0 0.070621,0 0.1414224,-0.005 0.2118644,0 0.1769833,0.01264 0.3613321,-0.0031 0.529661,0.05297 0.060391,0.02013 0.054132,0.121898 0.1059322,0.158898 0.1064847,0.07606 0.7828305,0.259449 0.7944915,0.264831 0.068011,0.03139 0.098974,0.113955 0.1588983,0.158898 0.082358,0.06177 0.1769872,0.105217 0.2648305,0.158899 0.2299573,0.140529 0.4562703,0.287088 0.6885594,0.423728 0.068056,0.04003 0.1428433,0.06759 0.2118644,0.105933 0.089992,0.04999 0.1696371,0.119701 0.2648305,0.158898 0.2065034,0.08503 0.4622678,0.07104 0.6355932,0.211864 0.7456462,0.605838 -0.2203319,0.389009 0.4766949,0.582627 0.2269586,0.06304 0.4664361,0.0805 0.6885593,0.158899 0.1458899,0.05149 0.3144809,0.285792 0.4237289,0.370762 0.200405,0.155871 0.363707,0.186445 0.582627,0.317797 0.0757,0.04542 0.138414,0.109931 0.211864,0.158898 0.171316,0.11421 0.355063,0.208673 0.529661,0.317797 0.05398,0.03374 0.103629,0.07435 0.158899,0.105932 0.137108,0.07835 0.289817,0.12817 0.423729,0.211865 0.07486,0.04679 0.14003,0.107588 0.211864,0.158898 0.1036,0.074 0.219991,0.130359 0.317797,0.211864 0.05754,0.04795 0.101354,0.110945 0.158898,0.158899 0.0489,0.04075 0.105932,0.07062 0.158898,0.105932 0.07062,0.05297 0.14484,0.101448 0.211865,0.158898 0.48637,0.416889 -0.259964,-0.183602 0.317796,0.476695 0.05199,0.05942 0.147615,0.06004 0.211865,0.105932 0.260918,0.18637 0.09696,0.202894 0.370762,0.476695 0.05583,0.05583 0.141243,0.07062 0.211865,0.105932 0.07062,0.05297 0.153216,0.09292 0.211864,0.158899 0.08458,0.09516 0.12184,0.227771 0.211865,0.317796 0.377855,0.377856 0.06212,-0.176088 0.370762,0.264831 0.08163,0.116611 0.111214,0.270111 0.211865,0.370763 0.05147,0.05147 0.141243,0.03531 0.211864,0.05297 0.07062,0.05297 0.156718,0.08996 0.211865,0.158898 0.08892,0.11115 0.117297,0.264375 0.211864,0.370763 0.339702,0.382164 0.09405,-0.206141 0.423729,0.26483 0.07711,0.110153 0.08179,0.26061 0.158898,0.370763 0.05062,0.07232 0.14484,0.101448 0.211864,0.158898 0.05687,0.04875 0.105933,0.105932 0.158899,0.158898 0.106009,0.10601 0.249849,0.234869 0.317796,0.370763 0.03256,0.06511 0.01685,0.148661 0.05297,0.211865 0.03716,0.06504 0.112106,0.100407 0.158899,0.158898 0.02466,0.03083 0.03531,0.07062 0.05297,0.105932 0.03531,0.07062 0.06213,0.146168 0.105932,0.211864 0.175667,0.175667 -0.02497,-0.04994 0.05297,0.105933 0.01117,0.02233 0.0418,0.03063 0.05297,0.05297 0.0079,0.01579 0,0.03531 0,0.05297 0,0.01766 0,0.03531 0,0.05297 0,0.123588 0,0.247175 0,0.370763 0,0.03531 -0.01117,0.07243 0,0.105932 0.0079,0.02369 0.04507,0.02928 0.05297,0.05297 0.01117,0.0335 -0.0086,0.07168 0,0.105932 0.122949,0.245898 0.0045,-0.03049 0.05297,0.211865 0.02182,0.109084 0.05885,0.170668 0.105933,0.26483 0.01766,0.03531 0.04339,0.06763 0.05297,0.105932 0.0086,0.03426 -0.0086,0.07168 0,0.105933 0.150044,0.300089 -0.01974,-0.07896 0.05297,0.211864 0.01915,0.0766 0.08678,0.135265 0.105932,0.211864 0.0086,0.03426 -0.0086,0.07168 0,0.105933 0.01915,0.0766 0.08678,0.135264 0.105932,0.211864 0.0086,0.03426 -0.0086,0.07168 0,0.105932 0.01915,0.0766 0.08678,0.135265 0.105933,0.211865 0.0086,0.03426 -0.0069,0.07131 0,0.105932 -0.01215,0.106363 0.08287,0.172592 0.105932,0.26483 0.0086,0.03426 -0.0086,0.07168 0,0.105933 0.01915,0.0766 0.08678,0.135264 0.105932,0.211864 0.0086,0.03426 -0.0086,0.07168 0,0.105932 0.0096,0.0383 0.04339,0.06763 0.05297,0.105932 0.0086,0.03426 -0.0086,0.07168 0,0.105933 0.0096,0.0383 0.04339,0.06763 0.05297,0.105932 0.0086,0.03426 -0.0086,0.07168 0,0.105932 0.0096,0.0383 0.04339,0.06763 0.05297,0.105932 0.01713,0.06851 -0.01385,0.142614 0,0.211865 0.01095,0.05475 0.04379,0.103826 0.05297,0.158898 0.0087,0.05224 -0.0053,0.106195 0,0.158898 0.01242,0.124223 0.03748,0.246885 0.05297,0.370763 0.0022,0.01752 -0.0043,0.03584 0,0.05297 0.01354,0.05416 0.04899,0.103209 0.05297,0.158898 0.01384,0.193716 -0.01384,0.388912 0,0.582627 0.02219,0.310719 0.05858,0.02809 0.105932,0.264831 0.01698,0.08488 -0.01698,0.179949 0,0.26483 0.0219,0.109494 0.08403,0.208303 0.105932,0.317797 0.0069,0.03462 -0.0086,0.07168 0,0.105932 0.01915,0.0766 0.08096,0.136959 0.105932,0.211865 0.01117,0.0335 -0.01117,0.07243 0,0.105932 0.127885,0.383655 -0.01527,-0.08351 0.105932,0.158898 0.01829,0.03659 -0.01859,0.246239 0,0.264831 0.01248,0.01248 0.04048,-0.01248 0.05297,0 0.0017,0.0017 0,0.146052 0,0.158898 0,0.300141 -0.03531,0.01766 0.05297,0.105932 0.01083,0.01083 -0.0105,0.137898 0,0.158898 0.110216,0.220433 -0.0037,-0.05662 0.105932,0.05297 0.01248,0.01248 0,0.03531 0,0.05297 0,0.01765 0,0.03531 0,0.05297 0,0.158898 0,0.317796 0,0.476695 0,0.300141 0,0.600282 0,0.900423 0,0.03531 0,0.07062 0,0.105933 0,0.03531 0.0077,0.07146 0,0.105932 -0.02788,0.125472 -0.0608,0.250413 -0.105932,0.370763 -0.0088,0.02338 -0.0418,0.03063 -0.05297,0.05297 -0.02497,0.04994 -0.03531,0.105932 -0.05297,0.158898 -0.01766,0.05297 -0.04202,0.104151 -0.05297,0.158898 -0.02448,0.122418 -0.02588,0.248894 -0.05297,0.370763 -0.0086,0.03854 -0.04522,0.06722 -0.05297,0.105932 -0.01766,0.141243 -0.03531,0.282486 -0.05297,0.423729 -0.01765,0.03531 -0.0444,0.06739 -0.05297,0.105932 -0.02708,0.12187 -0.02269,0.249648 -0.05297,0.370763 -0.0061,0.02422 -0.04611,0.02896 -0.05297,0.05297 -0.0295,0.103261 -0.02692,0.21361 -0.05297,0.317797 -0.0096,0.0383 -0.0444,0.06739 -0.05297,0.105932 -0.02708,0.121869 -0.02269,0.249648 -0.05297,0.370763 -0.0061,0.02422 -0.03531,0.03531 -0.05297,0.05297 -0.01765,0.05297 -0.04202,0.104151 -0.05297,0.158898 -0.0069,0.03463 0,0.07062 0,0.105932 0,0.105932 0,0.211865 0,0.317797 0,0.317796 0,0.635593 0,0.95339 0,0.211864 0,0.423728 0,0.635593 0,0.03644 -0.01028,0.286955 0,0.317796 0.01765,0.03531 0.03531,0.07062 0.05297,0.105933 0.01766,0 0.04048,-0.01248 0.05297,0 0.206713,0.206712 -0.01226,0.02844 0.05297,0.158898 0.02233,0.04467 0.07823,0.06438 0.105933,0.105932 0.0219,0.03285 0.03107,0.07308 0.05297,0.105932 0.0277,0.04155 0.07823,0.06438 0.105932,0.105933 0.0438,0.0657 0.06214,0.146168 0.105932,0.211864 0.01385,0.02078 0.03531,0.03531 0.05297,0.05297 0.05297,0.05297 0.105932,0.105932 0.158899,0.158898 0.01765,0.01766 0.0418,0.03063 0.05297,0.05297 0.0079,0.01579 -0.01248,0.04048 0,0.05297 0.01248,0.01248 0.04048,-0.01249 0.05297,0 0,0.141242 -0.01766,-0.01766 0.05297,0.05297 0.01248,0.01248 -0.01248,0.04048 0,0.05297 0.02497,0.02497 0.07435,-0.01579 0.105932,0 0.02233,0.01117 0.03531,0.03531 0.05297,0.05297 0.04162,0.04162 0.231093,0.247961 0.264831,0.26483 0.155869,0.07794 -0.06974,-0.1227 0.105932,0.05297 0.01766,0.01766 0.03531,0.03531 0.05297,0.05297 0.01765,0.01765 0.0418,0.03063 0.05297,0.05297 0.0079,0.01579 -0.01248,0.04048 0,0.05297 0.01248,0.01248 0.03531,0 0.05297,0 0.01766,0 0.03531,0 0.05297,0"
     id="path4146"
     inkscape:connector-curvature="0" /><path
     style="fill:none;fill-rule:evenodd;stroke:#000000;stroke-width:1px;stroke-linecap:butt;stroke-linejoin:miter;stroke-opacity:1"
     d="m 21.451271,42.637712 c 0,-0.706215 0,-1.41243 0,-2.118644 0,-0.247175 -0.0088,-0.494508 0,-0.741526 0.0088,-0.247647 0.04471,-0.493858 0.05297,-0.741525 0.0094,-0.282329 -0.0086,-0.565101 0,-0.847458 0.0091,-0.300522 0.03629,-0.600226 0.05297,-0.900423 0.01863,-0.335399 0.03576,-0.670881 0.05297,-1.006356 0.01811,-0.353085 0.03615,-0.706174 0.05297,-1.059322 0.01849,-0.388379 0.0271,-0.777297 0.05297,-1.165255 0.02711,-0.406703 0.04589,-0.815061 0.105932,-1.21822 0.08882,-0.596388 0.463658,-2.085906 0.582627,-2.648305 0.09674,-0.45733 0.168088,-0.919788 0.264831,-1.377119 0.294602,-1.392667 0.696021,-2.756004 1.059322,-4.131356 0.125768,-0.476124 0.234273,-0.956922 0.370762,-1.430084 -0.602099,-0.961928 0.505721,-1.113157 0.68856,-1.694916 0.151584,-0.482313 0.192726,-0.993192 0.317796,-1.48305 0.08703,-0.340847 0.206554,-0.672628 0.317797,-1.006356 0.100651,-0.301954 0.240601,-0.591641 0.317796,-0.900424 0.0648,-0.259197 0.04474,-0.53442 0.105933,-0.794492 0.01144,-0.04861 0.0836,-0.06127 0.105932,-0.105932 0.21249,-0.42498 0.09862,-0.299507 0.211864,-0.582627 0.01466,-0.03666 0.04522,-0.06722 0.05297,-0.105932 0.01039,-0.05194 -0.01039,-0.106961 0,-0.158899 0.01603,-0.08017 0.05547,-0.108437 0.105933,-0.158898 0.01766,-0.01766 0.0418,-0.03063 0.05297,-0.05297 0.0079,-0.01579 -0.01249,-0.04048 0,-0.05297 0.0024,-0.0024 0.239857,0 0.26483,0 0.105932,0 0.211865,0 0.317797,0 0.05297,0 0.10972,-0.01967 0.158898,0 0.0591,0.02364 0.09851,0.0858 0.158898,0.105932 0.05025,0.01675 0.106653,-0.0087 0.158899,0 0.527684,0.08795 -0.286062,0.02383 0.370762,0.105932 0.07008,0.0088 0.141953,-0.01 0.211865,0 0.05527,0.0079 0.10326,0.04833 0.158898,0.05297 0.15835,0.0132 0.318265,-0.01219 0.476695,0 0.145161,0.01117 0.279263,0.08787 0.423729,0.105933 0.07008,0.0088 0.141243,0 0.211864,0 0.176554,0 0.353833,-0.01599 0.529661,0 0.02487,0.0023 0.02825,0.04943 0.05297,0.05297 0.104868,0.01498 0.211865,0 0.317797,0 0.07062,0 0.141243,0 0.211864,0 0.45904,0 0.91808,0 1.377119,0 0.423729,0 0.847458,0 1.271186,0 0.123588,0 0.247176,0 0.370763,0 0.05297,0 0.106653,0.0087 0.158899,0 0.05507,-0.0092 0.105932,-0.03531 0.158898,-0.05297 0.07062,0 0.141953,0.01 0.211864,0 0.05527,-0.0079 0.105216,-0.03763 0.158899,-0.05297 0.06999,-0.02 0.139801,-0.04267 0.211864,-0.05297 0.05243,-0.0075 0.106464,0.0075 0.158898,0 0.07206,-0.01029 0.139801,-0.04267 0.211865,-0.05297 0.05243,-0.0075 0.106653,0.0087 0.158898,0 0.05507,-0.0092 0.103827,-0.04379 0.158898,-0.05297 0.104491,-0.01741 0.213922,0.02077 0.317797,0 0.03871,-0.0077 0.06848,-0.04048 0.105932,-0.05297 0.0292,-0.0097 0.20054,0.01132 0.211864,0 0.01248,-0.01248 -0.01248,-0.04048 0,-0.05297 0.02497,-0.02497 0.08096,0.02497 0.105933,0 0.01248,-0.01248 -0.0079,-0.03717 0,-0.05297 0.01117,-0.02233 0.03531,-0.03531 0.05297,-0.05297 0.03531,-0.03531 0.06311,-0.08024 0.105932,-0.105932 0.04787,-0.02872 0.108961,-0.028 0.158898,-0.05297 0.384835,-0.192418 -0.03076,-0.01481 0.264831,-0.211865 0.0657,-0.0438 0.147614,-0.06004 0.211864,-0.105932 0.10299,-0.07356 0.166745,-0.186362 0.264831,-0.264831 0.04971,-0.03977 0.105932,-0.07062 0.158898,-0.105932 0.05297,-0.03531 0.104313,-0.07318 0.158898,-0.105932 0.03385,-0.02031 0.07802,-0.02505 0.105933,-0.05297 0.02792,-0.02792 0.02505,-0.07802 0.05297,-0.105932 0.04501,-0.04501 0.101961,-0.07746 0.158898,-0.105932 0.01579,-0.0079 0.04048,0.01248 0.05297,0 0.01248,-0.01248 -0.0079,-0.03718 0,-0.05297 0.02233,-0.04467 0.0836,-0.06127 0.105932,-0.105932 0.0081,-0.01612 0,-0.135044 0,-0.158898 0,-0.141243 -0.01766,0.01765 0.05297,-0.05297 0.01248,-0.01248 0,-0.03531 0,-0.05297 0,-0.03531 -0.01579,-0.07435 0,-0.105932 0.0079,-0.01579 0.04048,0.01248 0.05297,0 0.01248,-0.01248 -0.0079,-0.03717 0,-0.05297 0.03178,-0.06356 0.127119,-0.09534 0.158899,-0.158898 0.0079,-0.01579 0,-0.03531 0,-0.05297"
     id="path4148"
     inkscape:connector-curvature="0" /></svg>