<?xml version="1.0" encoding="utf-8"?>
<!-- Generator: Adobe Illustrator 18.1.1, SVG Export Plug-In . SVG Version: 6.00 Build 0)  -->
<!DOCTYPE svg PUBLIC "-//W3C//DTD SVG 1.1//EN" "http://www.w3.org/Graphics/SVG/1.1/DTD/svg11.dtd">
<svg version="1.1" id="Layer_1" xmlns="http://www.w3.org/2000/svg" xmlns:xlink="http://www.w3.org/1999/xlink" x="0px" y="0px"
	 viewBox="0 0 50 50.1" enable-background="new 0 0 50 50.1" xml:space="preserve">
<g opacity="0.9">
	<path fill="#1E1E1E" d="M50,46c0,2.2-1.8,4-4,4H4c-2.2,0-4-1.8-4-4V4c0-2.2,1.8-4,4-4h42c2.2,0,4,1.8,4,4V46z"/>
</g>
<g>
	<path fill="#CBCBCB" d="M7.6,36.6H9v0.8c0.5-0.6,1.1-0.9,1.8-0.9c0.4,0,0.7,0.1,1,0.2s0.5,0.4,0.7,0.7c0.3-0.3,0.5-0.5,0.8-0.7
		s0.6-0.2,0.9-0.2c0.4,0,0.8,0.1,1.1,0.3c0.3,0.2,0.5,0.4,0.6,0.8c0.1,0.2,0.2,0.6,0.2,1.2v3.6h-1.5V39c0-0.6-0.1-0.9-0.2-1.1
		c-0.1-0.2-0.4-0.3-0.6-0.3c-0.2,0-0.4,0.1-0.6,0.2s-0.3,0.3-0.4,0.6s-0.1,0.6-0.1,1.2v2.7h-1.5v-3.1c0-0.6,0-0.9-0.1-1.1
		s-0.1-0.3-0.2-0.4c-0.1-0.1-0.3-0.1-0.5-0.1c-0.2,0-0.4,0.1-0.6,0.2c-0.2,0.1-0.3,0.3-0.4,0.5c-0.1,0.2-0.1,0.6-0.1,1.2v2.8H7.6
		V36.6z"/>
	<path fill="#CBCBCB" d="M18.7,38.3l-1.4-0.2c0.2-0.6,0.4-1,0.8-1.2c0.4-0.3,0.9-0.4,1.7-0.4c0.7,0,1.2,0.1,1.5,0.2s0.6,0.4,0.7,0.6
		c0.1,0.2,0.2,0.7,0.2,1.4l0,1.8c0,0.5,0,0.9,0.1,1.1c0,0.2,0.1,0.5,0.3,0.8H21c0-0.1-0.1-0.2-0.1-0.4c0-0.1,0-0.1-0.1-0.2
		c-0.3,0.3-0.5,0.4-0.8,0.6c-0.3,0.1-0.6,0.2-0.9,0.2c-0.6,0-1-0.2-1.4-0.5c-0.3-0.3-0.5-0.7-0.5-1.2c0-0.3,0.1-0.6,0.2-0.9
		c0.2-0.3,0.4-0.4,0.6-0.6c0.3-0.1,0.7-0.3,1.2-0.4c0.7-0.1,1.2-0.3,1.5-0.4v-0.2c0-0.3-0.1-0.5-0.2-0.6c-0.1-0.1-0.4-0.2-0.8-0.2
		c-0.3,0-0.5,0.1-0.6,0.2S18.8,38.1,18.7,38.3z M20.7,39.5c-0.2,0.1-0.5,0.1-0.9,0.2c-0.4,0.1-0.7,0.2-0.8,0.3
		c-0.2,0.1-0.3,0.3-0.3,0.5c0,0.2,0.1,0.4,0.2,0.5c0.2,0.2,0.4,0.2,0.6,0.2c0.3,0,0.5-0.1,0.8-0.3c0.2-0.1,0.3-0.3,0.4-0.5
		c0-0.1,0.1-0.4,0.1-0.7V39.5z"/>
	<path fill="#CBCBCB" d="M25.1,42.3h-1.5v-5.7H25v0.8c0.2-0.4,0.5-0.6,0.6-0.8c0.2-0.1,0.4-0.2,0.7-0.2c0.3,0,0.7,0.1,1,0.3
		l-0.5,1.3c-0.3-0.2-0.5-0.2-0.7-0.2c-0.2,0-0.4,0.1-0.5,0.2s-0.3,0.3-0.3,0.6c-0.1,0.3-0.1,0.9-0.1,1.9V42.3z"/>
	<path fill="#CBCBCB" d="M27.9,42.3v-7.9h1.5v4.2l1.8-2H33l-1.9,2.1l2.1,3.6h-1.6l-1.4-2.6l-0.7,0.7v1.8H27.9z"/>
	<path fill="#CBCBCB" d="M37.4,40.5l1.5,0.3c-0.2,0.6-0.5,1-0.9,1.3c-0.4,0.3-0.9,0.4-1.6,0.4c-1,0-1.7-0.3-2.2-1
		c-0.4-0.5-0.6-1.2-0.6-2c0-0.9,0.2-1.7,0.7-2.2c0.5-0.5,1.1-0.8,1.9-0.8c0.8,0,1.5,0.3,2,0.8s0.7,1.4,0.7,2.6h-3.8
		c0,0.4,0.1,0.8,0.4,1s0.5,0.4,0.9,0.4c0.2,0,0.4-0.1,0.6-0.2S37.3,40.8,37.4,40.5z M37.4,38.9c0-0.4-0.1-0.8-0.3-1
		s-0.5-0.3-0.8-0.3c-0.3,0-0.6,0.1-0.8,0.4c-0.2,0.2-0.3,0.6-0.3,1H37.4z"/>
	<path fill="#CBCBCB" d="M42.8,36.6v1.2h-1v2.3c0,0.5,0,0.7,0,0.8c0,0.1,0.1,0.1,0.1,0.2c0.1,0,0.2,0.1,0.3,0.1c0.1,0,0.3,0,0.6-0.1
		l0.1,1.2c-0.4,0.2-0.7,0.2-1.2,0.2c-0.3,0-0.5,0-0.7-0.1c-0.2-0.1-0.4-0.2-0.5-0.4c-0.1-0.1-0.2-0.3-0.2-0.6c0-0.2,0-0.5,0-1.1
		v-2.5h-0.7v-1.2h0.7v-1.1l1.5-0.9v2H42.8z"/>
</g>
<path fill="#CBCBCB" d="M30.1,10.9L18.2,9l-5.5,8.4v0.9l1.2,0.4l0,8.2L25.9,31l9-2.9l0-9.9l1.6,0.5l0.7-0.7L30.1,10.9z M25.2,11.1
	l2.2,0.3v2.3L26,16.2c0-0.4,0-3.2,0-4.1l-2-0.3L25.2,11.1z M34,27.3L31.8,28v-6.5L29,22.3v6.6l-2.8,0.9l0-9.2l-0.7,1.4l-7.4-2.2
	v-0.9l6.9,2l4.9-8.9l4.1,4.1L34,27.3z"/>
</svg>
